# xmcd CD database file
#
# Track frame offsets:
#	150
#	10096
#	18460
#	28668
#	40169
#	51262
#	59770
#	69112
#	79985
#	90742
#
# Disc length: 1357 seconds
#
# Revision: 0
# Processed by: cddbd v1.5.1PL2 Copyright (c) Steve Scherf et al.
# Submitted via: CDex 1.51
#
DISCID=7c054b0a
DTITLE=Jimmy Wakely - Million Sellers
DYEAR=1900
DGENRE=Country
TTITLE0=I'll Never Let You Go
TTITLE1=San Antonio Rose
TTITLE2=I Love You So Much It Hurts
TTITLE3=Beautiful Brown Eyes
TTITLE4=Oklahoma Hills
TTITLE5=Slipping Around
TTITLE6=Anytime
TTITLE7=Tennessee Waltz
TTITLE8=Your Cheatin' Heart
TTITLE9=One Has My Name
EXTD=
EXTT0=
EXTT1=
EXTT2=
EXTT3=
EXTT4=
EXTT5=
EXTT6=
EXTT7=
EXTT8=
EXTT9=
PLAYORDER=
